<?xml version="1.0" standalone="no"?>
<!DOCTYPE svg PUBLIC "-//W3C//DTD SVG 20010904//EN"
 "http://www.w3.org/TR/2001/REC-SVG-20010904/DTD/svg10.dtd">
<svg version="1.0" xmlns="http://www.w3.org/2000/svg"
 width="455.000000pt" height="455.000000pt" viewBox="0 0 455.000000 455.000000"
 preserveAspectRatio="xMidYMid meet">
<metadata>
Created by potrace 1.14, written by Peter Selinger 2001-2017
</metadata>
<g transform="translate(0.000000,455.000000) scale(0.100000,-0.100000)"
fill="#000000" stroke="none">
<path d="M2094 4521 c-92 -25 -155 -55 -229 -107 -33 -23 -260 -242 -503 -487
l-444 -444 114 -2 c132 -2 143 -3 238 -35 134 -46 163 -70 569 -474 273 -272
393 -385 415 -390 70 -19 79 -12 486 392 313 311 397 390 450 419 103 56 181
78 303 84 l109 6 -444 444 c-243 245 -470 464 -503 487 -119 84 -216 116 -375
122 -92 3 -129 0 -186 -15z"/>
<path d="M438 3002 c-162 -162 -301 -311 -321 -342 -149 -236 -142 -538 19
-765 23 -33 165 -182 316 -332 l273 -272 205 3 c127 1 222 7 250 15 109 31
134 52 525 441 374 371 425 417 465 425 11 2 24 7 30 10 5 3 37 7 71 9 62 4
122 -10 180 -39 18 -10 203 -187 411 -395 398 -397 431 -424 543 -451 28 -6
127 -12 222 -13 l172 -3 284 286 c329 331 353 363 404 527 25 83 25 285 0 368
-51 164 -75 196 -404 527 l-285 287 -182 -3 c-194 -3 -245 -13 -339 -69 -23
-13 -206 -188 -407 -388 -201 -200 -381 -376 -400 -390 -53 -39 -121 -57 -197
-54 -125 5 -128 7 -553 430 -232 231 -404 394 -433 411 -88 51 -126 57 -353
61 l-211 3 -285 -287z"/>
<path d="M2218 1981 c-15 -12 -186 -180 -380 -375 -194 -194 -380 -371 -413
-394 -123 -83 -230 -114 -394 -113 l-115 0 445 -445 c435 -437 514 -508 613
-553 153 -70 351 -79 509 -23 48 17 118 51 155 76 44 30 220 198 517 495 l450
451 -82 0 c-135 0 -262 38 -372 112 -25 17 -216 200 -423 406 l-377 375 -53 5
c-43 3 -58 0 -80 -17z"/>
</g>
</svg>
